<svg xmlns="http://www.w3.org/2000/svg" viewBox="0 0 69.48 27.81"><title>cash_check</title><path d="M18.45,47.87a1.1,1.1,0,0,1,1.06-.5H48.72c.78,0,1,.25,1,1V64.72c0,.8-.23,1-1,1q-14.66,0-29.3,0a.94.94,0,0,1-1-.52ZM25.15,49a5.93,5.93,0,0,1-5.09,5.1,2,2,0,0,0,0,.24c0,1.47,0,2.94,0,4.41,0,.28.17.28.35.32a6,6,0,0,1,4.56,4.17c.09.3.15.62.23.93h17.9l0-.16a5.78,5.78,0,0,1,4.79-4.87c.23,0,.28-.15.28-.37,0-1.44,0-2.89,0-4.33a.56.56,0,0,0-.05-.36,5.9,5.9,0,0,1-5-5.07C42.72,49,25.58,49,25.15,49ZM20.06,60.61v3.54h3.45A4.31,4.31,0,0,0,20.06,60.61ZM23.51,49H20.05v3.42A4.09,4.09,0,0,0,23.51,49ZM44.72,64.15h3.43V60.68C46.43,60.92,44.68,62.7,44.72,64.15Zm0-15.16a4.05,4.05,0,0,0,3.43,3.42V49ZM34.05,50.06a6.59,6.59,0,1,1-6.58,6.64A6.66,6.66,0,0,1,34.05,50.06Zm5,6.51a5,5,0,1,0-5,5A5.05,5.05,0,0,0,39.07,56.57Zm-5.65-3.32a1.82,1.82,0,0,0-1.57,1.69,1.67,1.67,0,0,0,1.29,1.84,12,12,0,0,0,1.44.44,1.29,1.29,0,0,1,.78.44A.63.63,0,0,1,35,58.74a4.28,4.28,0,0,1-.61.09A3.31,3.31,0,0,1,32.16,58l-.69.85a4,4,0,0,0,2.36,1v.7a2.27,2.27,0,0,0,.59,0c.12-.23,0-.48.1-.69a2.58,2.58,0,0,0,1.35-.44A1.73,1.73,0,0,0,36,56.6a4.51,4.51,0,0,0-1.1-.49c-.44-.11-.88-.2-1.31-.33a.77.77,0,0,1-.58-.87.8.8,0,0,1,.79-.69,4.93,4.93,0,0,1,.66,0,4.1,4.1,0,0,1,1.44.52l.62-.86a4,4,0,0,0-1.9-.74c-.08-.17,0-.32-.1-.43a1.42,1.42,0,0,0-.58,0l0,.39Z" transform="translate(-18.45 -37.96)" style="fill:#fff"/><path d="M77.26,47.23a1.42,1.42,0,0,0,.66.07H86.7c1,0,1.23.18,1.23,1.21V64.61c0,1-.18,1.16-1.16,1.16H54.53c-1,0-1.18-.18-1.18-1.19V48.49c0-1,.2-1.18,1.21-1.18q7.48,0,15,0a.87.87,0,0,0,.87-.51c1.57-2.75,3.15-5.48,4.74-8.22.41-.71.73-.8,1.44-.39l3.54,2c.65.38.73.73.35,1.39l-2.93,5.08ZM54.93,48.91V64.19H86.35V48.92l-.13,0c-3.2,0-6.4,0-9.6,0-.28,0-.38.16-.49.36-.7,1.21-1.4,2.41-2.09,3.62-.18.3-.34.61-.55,1h8.6a3.08,3.08,0,0,1,.61,0,.7.7,0,0,1,.61.71.71.71,0,0,1-.59.78,2.09,2.09,0,0,1-.56,0q-4.59,0-9.19,0a.66.66,0,0,0-.68.38c-.77,1.37-1.56,2.71-2.34,4.07a1.15,1.15,0,0,1-.78.59c-.92.23-1.83.49-2.75.73-.7.19-1,0-1.18-.65-.24-.9-.47-1.81-.73-2.7a1.32,1.32,0,0,1,.15-1.11c1.41-2.41,2.8-4.83,4.19-7.24a1,1,0,0,0,.24-.57ZM75,48l3.83-6.62-2.63-1.53-3.83,6.63Zm-4.61,8,3.83-6.64L71.6,47.8l-3.83,6.63ZM67,55.75l-.85,1.52a.45.45,0,0,0-.06.39c.18.61.34,1.23.53,1.91L68.55,59a.4.4,0,0,0,.21-.12l.95-1.63Zm-7.49,5.06a.76.76,0,0,0,1.52,0,1.45,1.45,0,0,0,0-.36.72.72,0,0,1,.45-.83,1.85,1.85,0,0,0,1.07-1.83,1.83,1.83,0,0,0-1.21-1.62l-1.43-.67c-.17-.09-.44-.09-.41-.37s.21-.34.41-.42a1.19,1.19,0,0,1,1.31.28.72.72,0,0,0,1.05,0,.79.79,0,0,0,0-1.1,1.52,1.52,0,0,0-.66-.47c-.55-.14-.67-.46-.64-1a.72.72,0,0,0-.74-.84c-.47,0-.77.32-.79.86,0,.11,0,.21,0,.31a.62.62,0,0,1-.4.71,1.91,1.91,0,0,0-1.11,1.81,1.84,1.84,0,0,0,1.28,1.68c.49.2,1,.43,1.44.66.16.08.36.15.33.39a.52.52,0,0,1-.37.39,1.18,1.18,0,0,1-1.32-.25.73.73,0,0,0-1.09,0,.77.77,0,0,0,.06,1.09,3.11,3.11,0,0,0,1.28.73C59.51,60.27,59.49,60.54,59.51,60.81Zm20.09.75c1,0,1.94,0,2.91,0a.76.76,0,0,0,.8-.8.74.74,0,0,0-.8-.74H73.73a4.35,4.35,0,0,0-.51,0,.7.7,0,0,0-.64.63.74.74,0,0,0,.45.83,1.14,1.14,0,0,0,.55.08h6Z" transform="translate(-18.45 -37.96)" style="fill:#fff"/></svg>