<svg xmlns="http://www.w3.org/2000/svg" viewBox="0 0 146.04 58.46"><title>cash_check</title><path d="M2,66.62A2.31,2.31,0,0,1,4.2,65.56H65.61c1.63,0,2.19.54,2.19,2.16V102c0,1.67-.49,2.15-2.17,2.15q-30.78,0-61.56,0A2,2,0,0,1,2,103.1ZM16.07,69c-1.17,6-4.72,9.56-10.72,10.72a3.76,3.76,0,0,0-.06.51c0,3.09,0,6.18,0,9.27,0,.57.34.57.73.66a12.46,12.46,0,0,1,9.58,8.77c.2.63.32,1.29.48,1.95H53.71l.07-.34A12.21,12.21,0,0,1,63.85,90.27c.49-.09.6-.3.6-.77,0-3,0-6.07,0-9.11a1.18,1.18,0,0,0-.1-.76A12.34,12.34,0,0,1,53.73,69C53,68.91,17,68.9,16.07,69ZM5.35,93.4v7.42h7.27C12.09,97.15,8.77,93.76,5.35,93.4ZM12.61,69H5.35v7.19C7.88,76.13,12.06,73.3,12.61,69Zm44.58,31.84H64.4V93.54C60.79,94,57.1,97.78,57.19,100.83Zm0-31.87c.29,3.75,4.28,7.17,7.21,7.2V69ZM34.76,71.21a13.85,13.85,0,1,1-13.83,14A14,14,0,0,1,34.76,71.21ZM45.31,84.89a10.54,10.54,0,1,0-10.5,10.53A10.61,10.61,0,0,0,45.31,84.89Zm-11.87-7a3.81,3.81,0,0,0-3.29,3.56c-.15,1.91.74,3.15,2.71,3.87a24.41,24.41,0,0,0,3,.91,2.89,2.89,0,0,1,1.65.93,1.33,1.33,0,0,1-.75,2.28,7.87,7.87,0,0,1-1.29.19,7,7,0,0,1-4.69-1.76l-1.46,1.78a8.62,8.62,0,0,0,5,2.19v1.46a4.2,4.2,0,0,0,1.24,0c.24-.48,0-1,.21-1.45a5.59,5.59,0,0,0,2.84-.91c2.06-1.27,2.27-4.71.21-6a8.41,8.41,0,0,0-2.32-1c-.92-.24-1.85-.43-2.75-.71a1.6,1.6,0,0,1-1.22-1.81A1.68,1.68,0,0,1,34.17,80a9.09,9.09,0,0,1,1.38,0,8.69,8.69,0,0,1,3.05,1.1l1.3-1.8a8.37,8.37,0,0,0-4-1.56c-.16-.35,0-.67-.21-.91a3.11,3.11,0,0,0-1.21.07l0,.82Z" transform="translate(-1.98 -45.77)" style="fill:#fff"/><path d="M125.58,65.27a3,3,0,0,0,1.39.15h18.47c2.19,0,2.58.39,2.58,2.55V101.8c0,2-.39,2.43-2.45,2.43H77.82c-2.11,0-2.48-.37-2.48-2.5V67.91c0-2.09.4-2.49,2.54-2.49q15.72,0,31.46,0a1.82,1.82,0,0,0,1.84-1.06c3.28-5.78,6.62-11.52,9.95-17.28.86-1.49,1.55-1.67,3-.81,2.48,1.42,5,2.84,7.43,4.28,1.36.8,1.55,1.53.75,2.92q-3.07,5.34-6.17,10.68C126,64.5,125.81,64.84,125.58,65.27ZM78.66,68.79v32.13h66V68.82a2.2,2.2,0,0,0-.28-.07c-6.73,0-13.45,0-20.18,0-.59,0-.79.33-1,.74-1.46,2.55-2.93,5.08-4.39,7.62-.37.64-.72,1.28-1.16,2.07H119c5.59,0,11.17,0,16.75,0a6.08,6.08,0,0,1,1.28.09,1.47,1.47,0,0,1,1.28,1.49,1.52,1.52,0,0,1-1.24,1.65,5,5,0,0,1-1.17.09c-6.44,0-12.88,0-19.32,0a1.42,1.42,0,0,0-1.44.82c-1.61,2.86-3.28,5.69-4.91,8.55a2.42,2.42,0,0,1-1.64,1.24c-1.94.47-3.86,1-5.79,1.54-1.47.39-2.08,0-2.47-1.38-.51-1.9-1-3.8-1.53-5.69a2.71,2.71,0,0,1,.31-2.33q4.44-7.59,8.8-15.21a2.1,2.1,0,0,0,.52-1.2Zm42.22-2,8.05-13.93-5.54-3.22-8,13.93Zm-9.69,16.8,8.06-14-5.55-3.2c-2.7,4.69-5.36,9.28-8,13.93ZM104,83.18l-1.79,3.2a.93.93,0,0,0-.12.8c.38,1.29.72,2.6,1.11,4l4.06-1.13a.81.81,0,0,0,.44-.26c.67-1.12,1.31-2.25,2-3.42ZM88.28,93.81a1.61,1.61,0,0,0,1.59,1.56,1.65,1.65,0,0,0,1.61-1.56,3.14,3.14,0,0,0,0-.75,1.49,1.49,0,0,1,.94-1.74,4,4,0,0,0,2.26-3.85,3.89,3.89,0,0,0-2.55-3.42c-1-.46-2-.94-3-1.41-.37-.17-.92-.18-.86-.78s.44-.7.85-.87a2.47,2.47,0,0,1,2.75.59,1.53,1.53,0,0,0,2.22-.06A1.67,1.67,0,0,0,94,79.2a3.06,3.06,0,0,0-1.38-1c-1.16-.29-1.43-1-1.35-2.09a1.51,1.51,0,0,0-1.56-1.76c-1,0-1.62.68-1.66,1.82a4.7,4.7,0,0,0,0,.65,1.28,1.28,0,0,1-.83,1.48,4,4,0,0,0-2.35,3.81,3.89,3.89,0,0,0,2.7,3.53c1,.43,2,.91,3,1.39.34.16.78.31.7.82a1.09,1.09,0,0,1-.78.82,2.5,2.5,0,0,1-2.77-.53,1.54,1.54,0,0,0-2.29.06,1.63,1.63,0,0,0,.14,2.3A6.42,6.42,0,0,0,88.27,92C88.27,92.67,88.24,93.24,88.28,93.81Zm42.23,1.57c2,0,4.08,0,6.12,0a1.58,1.58,0,0,0,1.68-1.68,1.57,1.57,0,0,0-1.68-1.56H118.17a9.49,9.49,0,0,0-1.07,0,1.45,1.45,0,0,0-1.34,1.32,1.54,1.54,0,0,0,.93,1.74,2.45,2.45,0,0,0,1.16.17h12.66Z" transform="translate(-1.98 -45.77)" style="fill:#fff"/></svg>