<svg xmlns="http://www.w3.org/2000/svg" viewBox="0 0 143.43 101.56"><title>cc</title><path d="M146.72,45.3v59.4a2.81,2.81,0,0,0-.26.62,23.77,23.77,0,0,1-23.76,20.46H27.2a22.93,22.93,0,0,1-3.21-.15,23.92,23.92,0,0,1-20.7-23.73q0-26.82,0-53.64a23.8,23.8,0,0,1,24.06-24H122.7a23.84,23.84,0,0,1,22.36,15.07A60.86,60.86,0,0,1,146.72,45.3ZM9.24,60.19V62q0,18.76,0,37.53c0,1,.1,2.05.11,3.08.12,8.67,7.5,17.19,18.3,17.19q47.34,0,94.68,0a19.77,19.77,0,0,0,5.25-.7c6.66-1.83,13.25-7.94,13.19-18.29-.06-13.07,0-26.14,0-39.22a2.29,2.29,0,0,0-.2-1.43ZM9.38,48H140.61a17.76,17.76,0,0,0-18-17.83q-47.67-.07-95.34,0A17.75,17.75,0,0,0,9.38,48Z" transform="translate(-3.28 -24.22)" style="fill:#fff"/><path d="M69,90V95.9H21.33V90Z" transform="translate(-3.28 -24.22)" style="fill:#fff"/><path d="M21.26,83.89V78.07H45v5.82Z" transform="translate(-3.28 -24.22)" style="fill:#fff"/></svg>