<svg xmlns="http://www.w3.org/2000/svg" viewBox="0 0 26.31 18.63"><title>cc</title><path d="M64.87,44.35v10.9a.37.37,0,0,0-.05.11,4.35,4.35,0,0,1-4.36,3.75H42.94a4,4,0,0,1-.59,0,4.37,4.37,0,0,1-3.79-4.35V44.89A4.37,4.37,0,0,1,43,40.48H60.46a4.36,4.36,0,0,1,4.1,2.77A9.92,9.92,0,0,1,64.87,44.35ZM39.65,47.08v7.23c0,.18,0,.37,0,.56A3.28,3.28,0,0,0,43,58H60.4a3.52,3.52,0,0,0,1-.13,3.31,3.31,0,0,0,2.42-3.35c0-2.4,0-4.8,0-7.2a.4.4,0,0,0,0-.26Zm0-2.23H63.75a3.25,3.25,0,0,0-3.3-3.27H43A3.25,3.25,0,0,0,39.68,44.85Z" transform="translate(-38.56 -40.48)" style="fill:#fff"/><path d="M50.61,52.54v1.09H41.87V52.54Z" transform="translate(-38.56 -40.48)" style="fill:#fff"/><path d="M41.85,51.43V50.36h4.36v1.07Z" transform="translate(-38.56 -40.48)" style="fill:#fff"/></svg>