<svg xmlns="http://www.w3.org/2000/svg" xmlns:xlink="http://www.w3.org/1999/xlink" viewBox="0 0 87.93 22.49"><defs><linearGradient id="a" x1="13.95" y1="15.74" x2="13.95" y2="8.59" gradientUnits="userSpaceOnUse"><stop offset="0" stop-color="#fff" stop-opacity="0.6"/><stop offset="1" stop-color="#fff"/></linearGradient><linearGradient id="b" x1="12.26" y1="16.66" x2="12.26" y2="11.76" xlink:href="#a"/><linearGradient id="c" x1="12.57" y1="19.4" x2="12.57" y2="14.01" xlink:href="#a"/><linearGradient id="d" x1="14.09" y1="23.41" x2="14.09" y2="15.08" xlink:href="#a"/><linearGradient id="e" x1="16.45" y1="24.41" x2="16.45" y2="15.5" xlink:href="#a"/><linearGradient id="f" x1="19.25" y1="22.43" x2="19.25" y2="15.28" xlink:href="#a"/><linearGradient id="g" x1="20.94" y1="19.26" x2="20.94" y2="14.36" xlink:href="#a"/><linearGradient id="h" x1="20.63" y1="17.01" x2="20.63" y2="11.62" xlink:href="#a"/><linearGradient id="i" x1="19.11" y1="15.95" x2="19.11" y2="7.61" xlink:href="#a"/><linearGradient id="j" x1="16.75" y1="15.52" x2="16.75" y2="6.61" xlink:href="#a"/></defs><title>mcm_logo</title><path d="M39,13.5l-.21-2.35c0-.35-.06-.8-.08-1.18h0c-.16.37-.41.87-.58,1.21l-1.21,2.36h-.29l-1.22-2.36c-.18-.34-.4-.81-.58-1.19h0c0,.4-.05.85-.08,1.16l-.2,2.35h-.7l.45-5.2h.48L36.15,11c.21.41.48.94.65,1.34h0c.16-.4.41-.9.63-1.34L38.82,8.3h.49l.46,5.2Z" transform="translate(-5.8 -4.26)" style="fill:#fff"/><path d="M43,13.6a1.92,1.92,0,0,1-2.12-1.93V8.3h.79v3.28a1.34,1.34,0,0,0,2.68,0V8.3h.76v3.37A1.91,1.91,0,0,1,43,13.6Z" transform="translate(-5.8 -4.26)" style="fill:#fff"/><path d="M46.45,13.5V8.3h.79v4.52h2.28v.68Z" transform="translate(-5.8 -4.26)" style="fill:#fff"/><path d="M51.7,9V13.5h-.79V9H49.24V8.3h4.13V9Z" transform="translate(-5.8 -4.26)" style="fill:#fff"/><path d="M54.3,13.5V8.3h.79v5.2Z" transform="translate(-5.8 -4.26)" style="fill:#fff"/><path d="M60.51,9.22a2.71,2.71,0,0,0-1.31-.34,2,2,0,1,0,0,4,2.92,2.92,0,0,0,1.44-.32l-.17.75A2.76,2.76,0,1,1,59.11,8.2a3.05,3.05,0,0,1,1.53.34Z" transform="translate(-5.8 -4.26)" style="fill:#fff"/><path d="M63.76,13.6a1.91,1.91,0,0,1-2.11-1.93V8.3h.79v3.28a1.34,1.34,0,0,0,2.67,0V8.3h.77v3.37A1.92,1.92,0,0,1,63.76,13.6Z" transform="translate(-5.8 -4.26)" style="fill:#fff"/><path d="M67.18,13.5V8.3H68v4.52h2.29v.68Z" transform="translate(-5.8 -4.26)" style="fill:#fff"/><path d="M72.43,9V13.5h-.79V9H70V8.3H74.1V9Z" transform="translate(-5.8 -4.26)" style="fill:#fff"/><path d="M77,13.6a1.91,1.91,0,0,1-2.11-1.93V8.3h.79v3.28a1.34,1.34,0,0,0,2.67,0V8.3h.77v3.37A1.92,1.92,0,0,1,77,13.6Z" transform="translate(-5.8 -4.26)" style="fill:#fff"/><path d="M83.6,13.5,82,11.22h-.74V13.5h-.78V8.3H82.1a1.48,1.48,0,0,1,1.56,1.46,1.41,1.41,0,0,1-.91,1.34l1.77,2.4ZM82,9h-.73v1.58H82A.8.8,0,1,0,82,9Z" transform="translate(-5.8 -4.26)" style="fill:#fff"/><path d="M88.76,13.5l-.56-1.35h-2l-.56,1.35h-.77l2.21-5.27h.29l2.21,5.27Zm-1.34-3.24c-.07-.17-.15-.42-.22-.64h0a3.42,3.42,0,0,1-.22.64l-.51,1.27h1.48Z" transform="translate(-5.8 -4.26)" style="fill:#fff"/><path d="M90.5,13.5V8.3h.79v4.52h2.28v.68Z" transform="translate(-5.8 -4.26)" style="fill:#fff"/><path d="M37.86,17.9a2.63,2.63,0,0,0-1.3-.34,2,2,0,1,0,0,4A2.85,2.85,0,0,0,38,21.27l-.16.75a2.74,2.74,0,0,1-1.36.26,2.7,2.7,0,1,1,0-5.4,3.08,3.08,0,0,1,1.53.34Z" transform="translate(-5.8 -4.26)" style="fill:#fff"/><path d="M38.84,22.18V17h2.8v.68h-2v1.57h1.68v.68H39.63V21.5h2.29v.68Z" transform="translate(-5.8 -4.26)" style="fill:#fff"/><path d="M47.13,22.29l-2.44-2.66c-.39-.42-.84-.94-1.19-1.37h0c0,.47,0,.91,0,1.3v2.61h-.79V17h.54l2.23,2.45c.3.33.78.85,1.09,1.24h0c0-.39,0-.84,0-1.22V17h.79v5.31Z" transform="translate(-5.8 -4.26)" style="fill:#fff"/><path d="M50.47,17.66v4.52h-.79V17.66H48V17h4.13v.68Z" transform="translate(-5.8 -4.26)" style="fill:#fff"/><path d="M52.79,22.18V17h2.8v.68h-2v1.57h1.69v.68H53.58V21.5h2.3v.68Z" transform="translate(-5.8 -4.26)" style="fill:#fff"/><path d="M59.81,22.18,58.17,19.9h-.73v2.28h-.78V17H58.3a1.48,1.48,0,0,1,1.57,1.46A1.41,1.41,0,0,1,59,19.78l1.77,2.4Zm-1.64-4.53h-.73v1.58h.73a.8.8,0,1,0,0-1.58Z" transform="translate(-5.8 -4.26)" style="fill:#fff"/><path d="M75.46,22.34,75.25,20c0-.35-.07-.8-.08-1.18h0c-.16.36-.42.87-.59,1.2l-1.2,2.36h-.3L71.84,20c-.18-.34-.4-.8-.57-1.19h0c0,.4-.06.86-.08,1.17L71,22.34h-.7l.45-5.19h.49l1.38,2.67c.22.4.48.93.66,1.33h0c.16-.4.42-.9.64-1.33l1.36-2.67h.49l.47,5.19Z" transform="translate(-5.8 -4.26)" style="fill:#fff"/><path d="M80.73,22.34,80.17,21h-2l-.56,1.34h-.77L79,17.07h.29l2.21,5.27ZM79.39,19.1c-.07-.17-.15-.41-.22-.63h0a3.32,3.32,0,0,1-.22.63l-.51,1.27H79.9Z" transform="translate(-5.8 -4.26)" style="fill:#fff"/><path d="M85.46,22.34l-1.64-2.28h-.73v2.28H82.3V17.15H84a1.47,1.47,0,0,1,1.56,1.45,1.39,1.39,0,0,1-.91,1.34l1.78,2.4Zm-1.65-4.53h-.72v1.58h.72a.8.8,0,0,0,.9-.79A.81.81,0,0,0,83.81,17.81Z" transform="translate(-5.8 -4.26)" style="fill:#fff"/><path d="M87,22.34V17.15h.79v5.19Z" transform="translate(-5.8 -4.26)" style="fill:#fff"/><path d="M93.5,22.46l-2.44-2.67c-.39-.42-.83-.94-1.19-1.36h0c0,.48,0,.92,0,1.31v2.6h-.79V17.15h.54l2.23,2.44c.3.33.78.85,1.09,1.25h0c0-.4,0-.85,0-1.22V17.15h.79v5.31Z" transform="translate(-5.8 -4.26)" style="fill:#fff"/><path d="M64.31,20.26a1.35,1.35,0,1,1,1.37-1.35A1.33,1.33,0,0,1,64.31,20.26Zm0-2.39a1.06,1.06,0,1,0,1,1.05A1,1,0,0,0,64.31,17.87Z" transform="translate(-5.8 -4.26)" style="fill:#fff"/><path d="M66.92,19.36v.86h.91v.29h-.91v1.16h-.34v-2.6H68v.29Z" transform="translate(-5.8 -4.26)" style="fill:#fff"/><path d="M13.49,8.67l0-.08a5.25,5.25,0,0,1,.42,2.05,8.86,8.86,0,0,1-3.39-1.55L10.4,9C12,10.5,12.58,13.72,14,15a2.06,2.06,0,0,0,3,.06,1.91,1.91,0,0,0,.38-1,2.07,2.07,0,0,0-.19-1.31C16.59,11.37,14.27,10.28,13.49,8.67Z" transform="translate(-5.8 -4.26)" style="fill:url(#a)"/><circle cx="4.99" cy="2.98" r="1.15" style="fill:#fff"/><path d="M10.07,11.8l-.08,0a5.23,5.23,0,0,1,1.53,1.41,8.82,8.82,0,0,1-3.64.74H7.77c2.19.24,4.53,2.53,6.48,2.74a2.07,2.07,0,0,0,2.5-1.75,1.84,1.84,0,0,0-.28-1,2,2,0,0,0-.92-1C14.16,12.17,11.64,12.65,10.07,11.8Z" transform="translate(-5.8 -4.26)" style="fill:url(#b)"/><circle cx="1.24" cy="7.98" r="1.15" style="fill:#fff"/><path d="M9.13,16.35H9.05a5.34,5.34,0,0,1,2.07.24A8.65,8.65,0,0,1,8.6,19.34l-.09.06c1.92-1.09,5.15-.62,6.86-1.59a2.07,2.07,0,0,0,1-2.88,1.92,1.92,0,0,0-.82-.67A2.16,2.16,0,0,0,14.23,14C12.66,14.25,10.9,16.11,9.13,16.35Z" transform="translate(-5.8 -4.26)" style="fill:url(#c)"/><circle cx="1.15" cy="14.22" r="1.15" style="fill:#fff"/><path d="M11.06,20.58l-.07.06a5.3,5.3,0,0,1,1.82-1,8.66,8.66,0,0,1-.43,3.69l0,.1c.91-2,3.8-3.53,4.61-5.32a2.07,2.07,0,0,0-.89-2.91,2,2,0,0,0-1-.06,2.07,2.07,0,0,0-1.19.59C12.67,16.8,12.34,19.35,11.06,20.58Z" transform="translate(-5.8 -4.26)" style="fill:url(#d)"/><circle cx="4.74" cy="19.33" r="1.15" style="fill:#fff"/><path d="M15.09,22.87V23a5.17,5.17,0,0,1,.87-1.9,8.92,8.92,0,0,1,1.83,3.24l0,.11c-.45-2.16,1-5.09.6-7A2.07,2.07,0,0,0,16,15.56a1.9,1.9,0,0,0-.88.57,2.09,2.09,0,0,0-.63,1.17C14.18,18.86,15.41,21.12,15.09,22.87Z" transform="translate(-5.8 -4.26)" style="fill:url(#e)"/><circle cx="10.65" cy="21.35" r="1.15" style="fill:#fff"/><path d="M19.71,22.35l0,.08a5.42,5.42,0,0,1-.42-2,8.7,8.7,0,0,1,3.39,1.54l.08.08c-1.63-1.49-2.18-4.71-3.63-6a2.07,2.07,0,0,0-3.05-.06,1.91,1.91,0,0,0-.38,1,2.07,2.07,0,0,0,.19,1.31C16.61,19.65,18.93,20.74,19.71,22.35Z" transform="translate(-5.8 -4.26)" style="fill:url(#f)"/><circle cx="16.61" cy="19.51" r="1.15" style="fill:#fff"/><path d="M23.13,19.22l.08,0a5.23,5.23,0,0,1-1.53-1.41,8.82,8.82,0,0,1,3.64-.74h.11c-2.19-.24-4.53-2.52-6.48-2.74a2.07,2.07,0,0,0-2.5,1.75,1.84,1.84,0,0,0,.28,1,2.07,2.07,0,0,0,.92,1C19,18.85,21.56,18.37,23.13,19.22Z" transform="translate(-5.8 -4.26)" style="fill:url(#g)"/><circle cx="20.36" cy="14.51" r="1.15" style="fill:#fff"/><path d="M24.07,14.67h.09a5.39,5.39,0,0,1-2.08-.24,8.65,8.65,0,0,1,2.52-2.74l.09-.06c-1.91,1.09-5.15.62-6.85,1.59a2.08,2.08,0,0,0-1,2.88,1.92,1.92,0,0,0,.82.67A2.16,2.16,0,0,0,19,17C20.54,16.77,22.3,14.91,24.07,14.67Z" transform="translate(-5.8 -4.26)" style="fill:url(#h)"/><circle cx="20.45" cy="8.27" r="1.15" style="fill:#fff"/><path d="M22.15,10.44l.06-.06a5.13,5.13,0,0,1-1.82,1,8.66,8.66,0,0,1,.43-3.69l0-.1c-.91,2-3.8,3.53-4.61,5.32a2.07,2.07,0,0,0,.89,2.91,2,2,0,0,0,1.05.06,2.07,2.07,0,0,0,1.19-.59C20.53,14.22,20.86,11.67,22.15,10.44Z" transform="translate(-5.8 -4.26)" style="fill:url(#i)"/><circle cx="16.86" cy="3.16" r="1.15" style="fill:#fff"/><circle cx="10.95" cy="1.15" r="1.15" style="fill:#fff"/><path d="M18.11,8.15V8.06a5.17,5.17,0,0,1-.87,1.9,8.75,8.75,0,0,1-1.82-3.24l0-.11c.45,2.16-1,5.09-.6,7a2.07,2.07,0,0,0,2.43,1.83,1.93,1.93,0,0,0,.89-.57,2.14,2.14,0,0,0,.62-1.17C19,12.16,17.79,9.9,18.11,8.15Z" transform="translate(-5.8 -4.26)" style="fill:url(#j)"/></svg>