<?xml version="1.0" encoding="utf-8"?>
<!-- Generator: Adobe Illustrator 23.0.6, SVG Export Plug-In . SVG Version: 6.00 Build 0)  -->
<svg version="1.1" id="Layer_1" xmlns="http://www.w3.org/2000/svg" xmlns:xlink="http://www.w3.org/1999/xlink" x="0px" y="0px"
	 viewBox="0 0 314.9 310.1" style="enable-background:new 0 0 314.9 310.1;" xml:space="preserve">
<style type="text/css">
	.st0{opacity:0.5;}
	.st1{fill:url(#SVGID_1_);}
	.st2{fill:url(#SVGID_2_);}
	.st3{fill:url(#SVGID_3_);}
	.st4{fill:url(#SVGID_4_);}
	.st5{fill:url(#SVGID_5_);}
	.st6{fill:url(#SVGID_6_);}
	.st7{fill:url(#SVGID_7_);}
	.st8{fill:url(#SVGID_8_);}
	.st9{fill:url(#SVGID_9_);}
	.st10{fill:url(#SVGID_10_);}
	.st11{fill:url(#SVGID_11_);}
	.st12{fill:url(#SVGID_12_);}
	.st13{fill:url(#SVGID_13_);}
	.st14{fill:url(#SVGID_14_);}
	.st15{fill:url(#SVGID_15_);}
	.st16{fill:url(#SVGID_16_);}
	.st17{fill:url(#SVGID_17_);}
	.st18{fill:url(#SVGID_18_);}
	.st19{fill:url(#SVGID_19_);}
	.st20{fill:url(#SVGID_20_);}
</style>
<g class="st0">
	<g>
		
			<linearGradient id="SVGID_1_" gradientUnits="userSpaceOnUse" x1="-36.6226" y1="263.2221" x2="-36.6226" y2="137.1163" gradientTransform="matrix(0.608 -0.7939 0.7939 0.608 -54.5133 5.5036)">
			<stop  offset="0" style="stop-color:#B83A87;stop-opacity:0.6"/>
			<stop  offset="1" style="stop-color:#B83A87"/>
		</linearGradient>
		<path class="st1" d="M28.3,125.2l-1.6-0.3c11.6,2.4,22.5,8.8,33.1,16.2c-18.3,13-37.1,27.1-57.9,30.8L0,172.2
			c38.3-6.9,89.3,19.9,123.4,13.8c23.3-4.2,38.3-23,33.4-42.1c-1.6-6.1-5-11.5-9.7-15.9c-4.7-5.5-11.8-9.7-20.4-11.5
			C99.4,110.9,59.1,131.6,28.3,125.2z"/>
	</g>
	<g>
		
			<linearGradient id="SVGID_2_" gradientUnits="userSpaceOnUse" x1="-66.4582" y1="279.4601" x2="-66.4582" y2="193.0502" gradientTransform="matrix(0.608 -0.7939 0.7939 0.608 -54.5133 5.5036)">
			<stop  offset="0" style="stop-color:#B83A87;stop-opacity:0.6"/>
			<stop  offset="1" style="stop-color:#B83A87"/>
		</linearGradient>
		<path class="st2" d="M35.5,206.8l-1.4,0.7c10.8-4.9,23.4-6.1,36.3-6.4c-7.1,21.3-14.1,43.7-28.8,59l-1.4,1.4
			c26.9-28.1,84-36.4,107.9-61.4c16.4-17.1,17.4-41.1,2.3-53.7c-4.9-4-10.8-6.4-17.2-7.1c-7.1-1.6-15.2-0.9-23.2,2.7
			C84.5,153.4,64.1,193.9,35.5,206.8z"/>
	</g>
	<g>
		
			<linearGradient id="SVGID_3_" gradientUnits="userSpaceOnUse" x1="-60.9132" y1="327.779" x2="-60.9132" y2="232.769" gradientTransform="matrix(0.608 -0.7939 0.7939 0.608 -54.5133 5.5036)">
			<stop  offset="0" style="stop-color:#B83A87;stop-opacity:0.6"/>
			<stop  offset="1" style="stop-color:#B83A87"/>
		</linearGradient>
		<path class="st3" d="M89.2,268.6l-0.8,1.4c5.9-10.3,15.3-18.7,25.6-26.5c6.7,21.4,14.3,43.6,11.4,64.6l-0.3,1.9
			c5.3-38.6,46.6-78.8,51.2-113.1c3.2-23.5-10.1-43.5-29.7-44.8c-6.3-0.4-12.5,1.2-18.1,4.3c-6.7,2.8-12.9,8.2-17.2,15.8
			C97.5,196.6,104.8,241.3,89.2,268.6z"/>
	</g>
	<g>
		
			<linearGradient id="SVGID_4_" gradientUnits="userSpaceOnUse" x1="-34.0437" y1="398.5857" x2="-34.0437" y2="251.5148" gradientTransform="matrix(0.608 -0.7939 0.7939 0.608 -54.5133 5.5036)">
			<stop  offset="0" style="stop-color:#B83A87;stop-opacity:0.6"/>
			<stop  offset="1" style="stop-color:#B83A87"/>
		</linearGradient>
		<path class="st4" d="M169,287l0.2,1.6c-1.3-11.8,1.4-24.1,5.1-36.5c18,13.4,37.2,26.9,47.2,45.6l0.9,1.7
			c-18.4-34.3-8.7-91.1-25-121.6c-11.2-20.9-33.7-29.3-50.3-18.8c-5.3,3.4-9.4,8.3-12.1,14.1c-3.7,6.2-5.6,14.2-4.6,22.9
			C133.4,223.9,165.5,255.8,169,287z"/>
	</g>
	<g>
		
			<linearGradient id="SVGID_5_" gradientUnits="userSpaceOnUse" x1="7.4381" y1="416.1487" x2="7.4381" y2="258.9969" gradientTransform="matrix(0.608 -0.7939 0.7939 0.608 -54.5133 5.5036)">
			<stop  offset="0" style="stop-color:#B83A87;stop-opacity:0.6"/>
			<stop  offset="1" style="stop-color:#B83A87"/>
		</linearGradient>
		<path class="st5" d="M244.4,255.1l1.1,1.2c-8-8.8-13-20.4-17.3-32.5c22.5,0.2,45.9-0.1,65,9.1l1.8,0.9
			c-35.1-16.9-60.6-68.6-91.7-83.7c-21.3-10.3-44.5-3.8-51.7,14.4c-2.3,5.9-2.7,12.2-1.5,18.5c0.6,7.2,3.9,14.8,9.7,21.2
			C178.5,224.9,223.2,231.8,244.4,255.1z"/>
	</g>
	<g>
		
			<linearGradient id="SVGID_6_" gradientUnits="userSpaceOnUse" x1="56.9191" y1="381.2675" x2="56.9191" y2="255.1617" gradientTransform="matrix(0.608 -0.7939 0.7939 0.608 -54.5133 5.5036)">
			<stop  offset="0" style="stop-color:#B83A87;stop-opacity:0.6"/>
			<stop  offset="1" style="stop-color:#B83A87"/>
		</linearGradient>
		<path class="st6" d="M286.5,184.9l1.6,0.3c-11.6-2.4-22.5-8.8-33.1-16.2c18.3-13,37.1-27.1,57.9-30.8l1.9-0.3
			c-38.3,6.9-89.3-19.9-123.4-13.8c-23.3,4.2-38.3,23-33.4,42.1c1.6,6.1,5,11.5,9.7,15.9c4.7,5.5,11.8,9.7,20.4,11.5
			C215.5,199.2,255.7,178.5,286.5,184.9z"/>
	</g>
	<g>
		
			<linearGradient id="SVGID_7_" gradientUnits="userSpaceOnUse" x1="86.7547" y1="325.3336" x2="86.7547" y2="238.9238" gradientTransform="matrix(0.608 -0.7939 0.7939 0.608 -54.5133 5.5036)">
			<stop  offset="0" style="stop-color:#B83A87;stop-opacity:0.6"/>
			<stop  offset="1" style="stop-color:#B83A87"/>
		</linearGradient>
		<path class="st7" d="M279.4,103.3l1.4-0.7c-10.8,4.9-23.4,6.1-36.3,6.4c7.1-21.3,14.1-43.7,28.8-59l1.4-1.4
			c-26.9,28.1-84,36.4-107.9,61.4c-16.4,17.1-17.4,41.1-2.3,53.7c4.9,4,10.8,6.4,17.2,7.1c7.1,1.6,15.2,0.9,23.2-2.7
			C230.4,156.6,250.7,116.2,279.4,103.3z"/>
	</g>
	<g>
		
			<linearGradient id="SVGID_8_" gradientUnits="userSpaceOnUse" x1="81.2097" y1="285.6149" x2="81.2097" y2="190.6048" gradientTransform="matrix(0.608 -0.7939 0.7939 0.608 -54.5133 5.5036)">
			<stop  offset="0" style="stop-color:#B83A87;stop-opacity:0.6"/>
			<stop  offset="1" style="stop-color:#B83A87"/>
		</linearGradient>
		<path class="st8" d="M225.7,41.5l0.8-1.4c-5.9,10.3-15.3,18.7-25.6,26.5c-6.7-21.4-14.3-43.6-11.4-64.6l0.3-1.9
			c-5.3,38.6-46.6,78.8-51.2,113.1c-3.2,23.5,10.1,43.5,29.7,44.8c6.3,0.4,12.5-1.2,18.1-4.3c6.7-2.8,12.9-8.2,17.2-15.8
			C217.4,113.5,210.1,68.8,225.7,41.5z"/>
	</g>
	<g>
		
			<linearGradient id="SVGID_9_" gradientUnits="userSpaceOnUse" x1="54.3402" y1="266.869" x2="54.3402" y2="119.7982" gradientTransform="matrix(0.608 -0.7939 0.7939 0.608 -54.5133 5.5036)">
			<stop  offset="0" style="stop-color:#B83A87;stop-opacity:0.6"/>
			<stop  offset="1" style="stop-color:#B83A87"/>
		</linearGradient>
		<path class="st9" d="M145.9,23l-0.2-1.6c1.3,11.8-1.4,24.1-5.1,36.5c-18-13.4-37.2-26.9-47.2-45.6l-0.9-1.7
			c18.4,34.3,8.7,91.1,25,121.6c11.2,20.9,33.7,29.3,50.3,18.8c5.3-3.4,9.4-8.3,12.1-14.1c3.7-6.2,5.6-14.2,4.6-22.9
			C181.5,86.2,149.3,54.3,145.9,23z"/>
	</g>
	<g>
		
			<linearGradient id="SVGID_10_" gradientUnits="userSpaceOnUse" x1="12.8584" y1="259.3869" x2="12.8584" y2="102.2352" gradientTransform="matrix(0.608 -0.7939 0.7939 0.608 -54.5133 5.5036)">
			<stop  offset="0" style="stop-color:#B83A87;stop-opacity:0.6"/>
			<stop  offset="1" style="stop-color:#B83A87"/>
		</linearGradient>
		<path class="st10" d="M70.5,55l-1.1-1.2c8,8.8,13,20.4,17.3,32.5c-22.5-0.2-45.9,0.1-65-9.1L20,76.4
			c35.1,16.9,60.6,68.6,91.7,83.7c21.3,10.3,44.5,3.8,51.7-14.4c2.3-5.9,2.7-12.2,1.5-18.5c-0.6-7.2-3.9-14.8-9.7-21.2
			C136.4,85.2,91.7,78.3,70.5,55z"/>
	</g>
</g>
<g>
	
		<linearGradient id="SVGID_11_" gradientUnits="userSpaceOnUse" x1="138.9372" y1="2.9307" x2="138.9372" y2="-90.5843" gradientTransform="matrix(0.7071 0.7071 -0.7071 0.7071 34.6301 32.3073)">
		<stop  offset="0" style="stop-color:#B83A87;stop-opacity:0.6"/>
		<stop  offset="1" style="stop-color:#B83A87"/>
	</linearGradient>
	<path class="st11" d="M192,63l0.4-1.1c-2.9,8.3-8.7,15.7-15.1,22.7c-7.8-14.7-16.3-29.9-17-45.6l-0.1-1.5
		c1.3,28.9-23.4,63.7-22.2,89.4c0.8,17.5,13.2,30.4,27.7,28.6c4.6-0.6,8.9-2.6,12.6-5.6c4.5-3,8.3-7.7,10.4-13.9
		C195.6,116.7,184.2,85,192,63z"/>
	
		<linearGradient id="SVGID_12_" gradientUnits="userSpaceOnUse" x1="116.8123" y1="14.9721" x2="116.8123" y2="-49.1059" gradientTransform="matrix(0.7071 0.7071 -0.7071 0.7071 34.6301 32.3073)">
		<stop  offset="0" style="stop-color:#B83A87;stop-opacity:0.6"/>
		<stop  offset="1" style="stop-color:#B83A87"/>
	</linearGradient>
	<path class="st12" d="M131.3,60.3l-0.3-1.1c2.5,8.4,2.2,17.8,1.2,27.3c-15-7.3-30.7-14.6-40.6-26.9l-0.9-1.1
		c18,22.6,18.6,65.3,34.6,85.3c11,13.7,28.5,16.8,39.2,6.9c3.4-3.2,5.7-7.3,6.9-11.9c1.9-5,2.1-11.1,0.3-17.3
		C165.7,101.6,138,82.7,131.3,60.3z"/>
	
		<linearGradient id="SVGID_13_" gradientUnits="userSpaceOnUse" x1="120.9243" y1="50.8034" x2="120.9243" y2="-19.6522" gradientTransform="matrix(0.7071 0.7071 -0.7071 0.7071 34.6301 32.3073)">
		<stop  offset="0" style="stop-color:#B83A87;stop-opacity:0.6"/>
		<stop  offset="1" style="stop-color:#B83A87"/>
	</linearGradient>
	<path class="st13" d="M80.6,93.8l-0.9-0.7c7,5.3,12.2,13.1,17,21.4c-16.4,2.9-33.5,6.2-48.6,2.1l-1.4-0.4
		c27.9,7.6,53.4,41.9,78.2,48.7c16.9,4.6,33-3.2,35.8-17.5c0.9-4.6,0.3-9.3-1.4-13.7c-1.4-5.2-4.8-10.3-10-14.2
		C132.7,106.9,99.2,107.9,80.6,93.8z"/>
	
		<linearGradient id="SVGID_14_" gradientUnits="userSpaceOnUse" x1="140.8496" y1="103.3107" x2="140.8496" y2="-5.751" gradientTransform="matrix(0.7071 0.7071 -0.7071 0.7071 34.6301 32.3073)">
		<stop  offset="0" style="stop-color:#B83A87;stop-opacity:0.6"/>
		<stop  offset="1" style="stop-color:#B83A87"/>
	</linearGradient>
	<path class="st14" d="M59.3,150.6l-1.2,0c8.8,0.2,17.6,3.4,26.3,7.3c-11.6,12-23.4,24.7-38.1,30.3l-1.4,0.5
		c27-10.2,67.8,2.5,91.9-6.5c16.4-6.2,24.8-21.9,18.7-35.2c-2-4.2-5.2-7.7-9.2-10.3c-4.2-3.4-9.9-5.5-16.4-5.6
		C109.2,130.6,82.6,151.2,59.3,150.6z"/>
	
		<linearGradient id="SVGID_15_" gradientUnits="userSpaceOnUse" x1="171.6108" y1="116.3347" x2="171.6108" y2="-0.2026" gradientTransform="matrix(0.7071 0.7071 -0.7071 0.7071 34.6301 32.3073)">
		<stop  offset="0" style="stop-color:#B83A87;stop-opacity:0.6"/>
		<stop  offset="1" style="stop-color:#B83A87"/>
	</linearGradient>
	<path class="st15" d="M75.4,209.2l-1,0.7c7.2-5,16.2-7.6,25.6-9.5c-2.4,16.5-4.4,33.8-13,46.9l-0.8,1.2
		c15.9-24.1,56.4-37.8,70.5-59.3c9.6-14.7,7.2-32.3-5.5-39.4c-4.1-2.3-8.7-3.2-13.5-2.9c-5.4-0.2-11.2,1.4-16.6,5.1
		C104,163.7,94.6,195.9,75.4,209.2z"/>
	
		<linearGradient id="SVGID_16_" gradientUnits="userSpaceOnUse" x1="208.3039" y1="90.4683" x2="208.3039" y2="-3.0466" gradientTransform="matrix(0.7071 0.7071 -0.7071 0.7071 34.6301 32.3073)">
		<stop  offset="0" style="stop-color:#B83A87;stop-opacity:0.6"/>
		<stop  offset="1" style="stop-color:#B83A87"/>
	</linearGradient>
	<path class="st16" d="M122.9,247l-0.4,1.1c2.9-8.3,8.7-15.7,15.1-22.7c7.8,14.7,16.3,29.9,17,45.6l0.1,1.5
		c-1.3-28.9,23.4-63.7,22.2-89.4c-0.8-17.5-13.2-30.4-27.7-28.6c-4.6,0.6-8.9,2.6-12.6,5.6c-4.5,3-8.3,7.7-10.4,13.9
		C119.3,193.4,130.6,225,122.9,247z"/>
	
		<linearGradient id="SVGID_17_" gradientUnits="userSpaceOnUse" x1="230.4287" y1="48.99" x2="230.4287" y2="-15.088" gradientTransform="matrix(0.7071 0.7071 -0.7071 0.7071 34.6301 32.3073)">
		<stop  offset="0" style="stop-color:#B83A87;stop-opacity:0.6"/>
		<stop  offset="1" style="stop-color:#B83A87"/>
	</linearGradient>
	<path class="st17" d="M183.6,249.8l0.3,1.1c-2.5-8.4-2.2-17.8-1.2-27.3c15,7.3,30.7,14.6,40.6,26.9l0.9,1.1
		c-18-22.6-18.6-65.3-34.6-85.3c-11-13.7-28.5-16.8-39.2-6.9c-3.4,3.2-5.7,7.3-6.9,11.9c-1.9,5-2.1,11.1-0.3,17.3
		C149.2,208.5,176.9,227.4,183.6,249.8z"/>
	
		<linearGradient id="SVGID_18_" gradientUnits="userSpaceOnUse" x1="226.3168" y1="19.5362" x2="226.3168" y2="-50.9193" gradientTransform="matrix(0.7071 0.7071 -0.7071 0.7071 34.6301 32.3073)">
		<stop  offset="0" style="stop-color:#B83A87;stop-opacity:0.6"/>
		<stop  offset="1" style="stop-color:#B83A87"/>
	</linearGradient>
	<path class="st18" d="M234.3,216.3l0.9,0.7c-7-5.3-12.2-13.1-17-21.4c16.4-2.9,33.5-6.2,48.6-2.1l1.4,0.4
		c-27.9-7.6-53.4-41.9-78.2-48.7c-16.9-4.6-33,3.2-35.8,17.5c-0.9,4.6-0.3,9.3,1.4,13.7c1.4,5.2,4.8,10.3,10,14.2
		C182.2,203.2,215.7,202.2,234.3,216.3z"/>
	
		<linearGradient id="SVGID_19_" gradientUnits="userSpaceOnUse" x1="206.3915" y1="5.6351" x2="206.3915" y2="-103.4267" gradientTransform="matrix(0.7071 0.7071 -0.7071 0.7071 34.6301 32.3073)">
		<stop  offset="0" style="stop-color:#B83A87;stop-opacity:0.6"/>
		<stop  offset="1" style="stop-color:#B83A87"/>
	</linearGradient>
	<path class="st19" d="M255.6,159.4l1.2,0c-8.8-0.2-17.6-3.4-26.3-7.3c11.6-12,23.4-24.7,38.1-30.3l1.4-0.5
		c-27,10.2-67.8-2.5-91.9,6.5c-16.4,6.2-24.8,21.9-18.7,35.2c2,4.2,5.2,7.7,9.2,10.3c4.2,3.4,9.9,5.5,16.4,5.6
		C205.7,179.4,232.3,158.9,255.6,159.4z"/>
	
		<linearGradient id="SVGID_20_" gradientUnits="userSpaceOnUse" x1="175.6302" y1="8.664701e-02" x2="175.6302" y2="-116.4507" gradientTransform="matrix(0.7071 0.7071 -0.7071 0.7071 34.6301 32.3073)">
		<stop  offset="0" style="stop-color:#B83A87;stop-opacity:0.6"/>
		<stop  offset="1" style="stop-color:#B83A87"/>
	</linearGradient>
	<path class="st20" d="M239.4,100.9l1-0.7c-7.2,5-16.2,7.6-25.6,9.5c2.4-16.5,4.4-33.8,13-46.9l0.8-1.2
		c-15.9,24.1-56.4,37.8-70.5,59.3c-9.6,14.7-7.2,32.3,5.5,39.4c4.1,2.3,8.7,3.2,13.5,2.9c5.4,0.2,11.2-1.4,16.6-5.1
		C210.8,146.4,220.3,114.2,239.4,100.9z"/>
</g>
<g>
</g>
<g>
</g>
<g>
</g>
<g>
</g>
<g>
</g>
<g>
</g>
</svg>
