<svg xmlns="http://www.w3.org/2000/svg" viewBox="0 0 55.2 14.71"><title>paypal</title><path d="M28.83,42.64H24.54a.6.6,0,0,0-.59.5l-1.73,11a.36.36,0,0,0,.29.41h2.11a.6.6,0,0,0,.59-.5l.47-3a.59.59,0,0,1,.59-.51h1.36c2.82,0,4.46-1.36,4.88-4.08A3.31,3.31,0,0,0,32,43.73,4,4,0,0,0,28.83,42.64Zm.5,4c-.23,1.54-1.41,1.54-2.55,1.54h-.65l.46-2.88a.35.35,0,0,1,.35-.3h.3c.77,0,1.5,0,1.88.44A1.41,1.41,0,0,1,29.33,46.66Zm12.34,0H39.61a.36.36,0,0,0-.35.3l-.09.57-.15-.2a2.89,2.89,0,0,0-2.42-.87A4.71,4.71,0,0,0,32,50.55a3.89,3.89,0,0,0,.76,3.16,3.21,3.21,0,0,0,2.59,1,4,4,0,0,0,2.85-1.17l-.1.57a.37.37,0,0,0,.3.41h1.91a.6.6,0,0,0,.59-.5L42,47a.36.36,0,0,0-.3-.41Zm-2.87,4a2.29,2.29,0,0,1-2.32,2,1.59,1.59,0,0,1-1.7-2,2.3,2.3,0,0,1,2.3-2,1.74,1.74,0,0,1,1.37.56A1.77,1.77,0,0,1,38.8,50.61Zm13.82-4H50.55a.59.59,0,0,0-.49.26l-2.85,4.2L46,47a.6.6,0,0,0-.57-.42h-2A.36.36,0,0,0,43,47a.5.5,0,0,0,0,.12l2.27,6.68-2.14,3a.35.35,0,0,0,.3.56h2.06a.6.6,0,0,0,.49-.25l6.87-9.92a.36.36,0,0,0-.09-.5.36.36,0,0,0-.2-.06Zm6.84-4h-4.3a.6.6,0,0,0-.59.5l-1.73,11a.36.36,0,0,0,.3.41h2.25a.43.43,0,0,0,.42-.35l.49-3.12a.59.59,0,0,1,.59-.51h1.36c2.82,0,4.46-1.36,4.88-4.08a3.31,3.31,0,0,0-.54-2.77A4,4,0,0,0,59.46,42.64Zm.49,4c-.23,1.54-1.41,1.54-2.55,1.54h-.64l.45-2.88a.36.36,0,0,1,.35-.3h.3c.77,0,1.51,0,1.88.44A1.41,1.41,0,0,1,60,46.66Zm12.34,0H70.23a.36.36,0,0,0-.35.3l-.09.57-.14-.2a2.93,2.93,0,0,0-2.43-.87,4.73,4.73,0,0,0-4.59,4.14,3.86,3.86,0,0,0,.77,3.16,3.19,3.19,0,0,0,2.58,1,4,4,0,0,0,2.85-1.17l-.09.57a.36.36,0,0,0,.3.41h1.9a.59.59,0,0,0,.59-.5l1.11-7a.36.36,0,0,0-.3-.41Zm-2.87,4a2.29,2.29,0,0,1-2.32,2A1.76,1.76,0,0,1,65.72,52a1.8,1.8,0,0,1-.32-1.45,2.31,2.31,0,0,1,2.31-2,1.77,1.77,0,0,1,1.37.56A1.8,1.8,0,0,1,69.42,50.61Zm5.29-7.67L73,54.15a.36.36,0,0,0,.3.41h1.83a.58.58,0,0,0,.58-.5l1.74-11a.35.35,0,0,0-.29-.41h-2A.36.36,0,0,0,74.71,42.94Z" transform="translate(-22.21 -42.64)" style="fill:#fff"/></svg>