<svg xmlns="http://www.w3.org/2000/svg" viewBox="0 0 145.67 38.82"><title>paypal</title><path d="M19.78,55.43H8.45A1.56,1.56,0,0,0,6.9,56.75L2.32,85.81a1,1,0,0,0,.78,1.08H8.66a1.57,1.57,0,0,0,1.56-1.33l1.23-7.84A1.58,1.58,0,0,1,13,76.4h3.58c7.47,0,11.77-3.61,12.9-10.77C30,62.5,29.51,60,28,58.32,26.43,56.43,23.58,55.43,19.78,55.43ZM21.09,66c-.62,4.06-3.72,4.06-6.73,4.06H12.65l1.2-7.59a.94.94,0,0,1,.93-.8h.79c2,0,4,0,5,1.17A3.75,3.75,0,0,1,21.09,66Zm32.56-.13H48.23a.93.93,0,0,0-.93.79l-.24,1.52-.38-.55c-1.18-1.7-3.8-2.27-6.41-2.27-6,0-11.12,4.54-12.12,10.91a10.23,10.23,0,0,0,2,8.33A8.5,8.5,0,0,0,37,87.4a10.39,10.39,0,0,0,7.51-3.1l-.24,1.5a1,1,0,0,0,.78,1.09h5a1.58,1.58,0,0,0,1.55-1.33L54.58,67a.93.93,0,0,0-.78-1.08ZM46.09,76.47A6,6,0,0,1,40,81.65a4.55,4.55,0,0,1-3.64-1.47,4.6,4.6,0,0,1-.86-3.81,6.09,6.09,0,0,1,6.09-5.22,4.54,4.54,0,0,1,3.61,1.48A4.67,4.67,0,0,1,46.09,76.47ZM82.55,65.91H77.1a1.57,1.57,0,0,0-1.3.69L68.28,77.67,65.09,67a1.58,1.58,0,0,0-1.51-1.12H58.22a.94.94,0,0,0-.95.94,1.12,1.12,0,0,0,0,.31l6,17.62-5.65,8a1,1,0,0,0,.23,1.32,1,1,0,0,0,.54.17H63.9a1.57,1.57,0,0,0,1.29-.67L83.33,67.39a1,1,0,0,0-.24-1.32,1,1,0,0,0-.54-.16Z" transform="translate(-2.3 -55.42)" style="fill:#fff"/><path d="M100.6,55.43H89.27a1.57,1.57,0,0,0-1.55,1.32L83.14,85.81a.94.94,0,0,0,.78,1.08h6A1.11,1.11,0,0,0,91,86l1.3-8.24a1.58,1.58,0,0,1,1.55-1.33h3.59c7.46,0,11.77-3.61,12.9-10.77.51-3.13,0-5.59-1.45-7.31C107.25,56.43,104.4,55.43,100.6,55.43ZM101.91,66c-.62,4.06-3.72,4.06-6.73,4.06H93.47l1.21-7.59a.94.94,0,0,1,.93-.8h.78c2,0,4,0,5,1.17A3.75,3.75,0,0,1,101.91,66Zm32.56-.13h-5.42a.93.93,0,0,0-.93.79l-.24,1.52-.38-.55c-1.18-1.7-3.79-2.27-6.41-2.27-6,0-11.11,4.54-12.11,10.91a10.23,10.23,0,0,0,2,8.33,8.48,8.48,0,0,0,6.83,2.76,10.39,10.39,0,0,0,7.51-3.1l-.24,1.5a1,1,0,0,0,.78,1.09h5a1.57,1.57,0,0,0,1.55-1.33L135.41,67a1,1,0,0,0-.79-1.08Zm-7.56,10.56a6,6,0,0,1-6.12,5.18,4.21,4.21,0,0,1-4.5-5.28,6.08,6.08,0,0,1,6.08-5.22A4.56,4.56,0,0,1,126,72.63,4.67,4.67,0,0,1,126.91,76.47Zm14-20.25-4.65,29.59a1,1,0,0,0,.78,1.08h4.83a1.57,1.57,0,0,0,1.55-1.33l4.59-29a.94.94,0,0,0-.79-1.08l-.14,0H141.8A1,1,0,0,0,140.87,56.22Z" transform="translate(-2.3 -55.42)" style="fill:#fff"/></svg>