<svg xmlns="http://www.w3.org/2000/svg" viewBox="0 0 146.62 27.88"><title>venmo</title><path d="M25.79,61.06a10,10,0,0,1,1.44,5.45c0,6.78-5.79,15.6-10.5,21.78H6L1.69,62.55l9.4-.9L13.37,80c2.13-3.47,4.75-8.92,4.75-12.63a10.25,10.25,0,0,0-.89-4.56l8.56-1.73Z" transform="translate(-1.69 -61.06)" style="fill:#fff"/><path d="M38,72.4c1.73,0,6.08-.79,6.08-3.27a1.7,1.7,0,0,0-1.83-1.78c-1.73,0-4,2.08-4.25,5.05Zm-.2,4.9c0,3,1.68,4.21,3.91,4.21a16.36,16.36,0,0,0,7.76-2.13l-1.13,7.73a21.4,21.4,0,0,1-8.66,1.73c-8.17,0-11.09-5-11.09-11.14,0-8,4.75-16.54,14.55-16.54,5.4,0,8.41,3,8.41,7.23,0,6.78-8.7,8.86-13.75,8.91Z" transform="translate(-1.69 -61.06)" style="fill:#fff"/><path d="M78.66,67.1a24.83,24.83,0,0,1-.3,3.37L75.54,88.29H66.39L69,72c.05-.44.2-1.33.2-1.83,0-1.19-.74-1.48-1.64-1.48a7.39,7.39,0,0,0-3.16.94L61.44,88.29H52.23l4.21-26.68h8l.1,2.13a13.71,13.71,0,0,1,7.87-2.58c4.65,0,6.28,2.38,6.28,5.94Z" transform="translate(-1.69 -61.06)" style="fill:#fff"/><path d="M105.84,64.08a13.64,13.64,0,0,1,8.51-2.92c4.7,0,6.34,2.38,6.34,5.94a24.83,24.83,0,0,1-.3,3.37l-2.82,17.82h-9.16L111,71.61c0-.45.15-1,.15-1.34,0-1.34-.74-1.63-1.63-1.63a6.93,6.93,0,0,0-3.12.94l-2.92,18.71H94.36L97,71.61c0-.45.15-1,.15-1.34,0-1.34-.75-1.63-1.64-1.63a7.39,7.39,0,0,0-3.16.94L89.41,88.29h-9.2l4.2-26.68h7.87l.25,2.22a12.67,12.67,0,0,1,7.62-2.67c2.87,0,4.75,1.24,5.69,2.92Z" transform="translate(-1.69 -61.06)" style="fill:#fff"/><path d="M138.9,71.86c0-2.18-.54-3.67-2.17-3.67-3.62,0-4.36,6.39-4.36,9.66,0,2.47.7,4,2.33,4C138.11,81.86,138.9,75.12,138.9,71.86Zm-15.83,5.59c0-8.42,4.45-16.29,14.7-16.29,7.72,0,10.54,4.56,10.54,10.84,0,8.32-4.41,16.94-14.9,16.94C125.64,88.94,123.07,83.84,123.07,77.45Z" transform="translate(-1.69 -61.06)" style="fill:#fff"/></svg>